<svg width="64" height="64" viewBox="0 0 64 64" fill="none" xmlns="http://www.w3.org/2000/svg">
<path d="M7 1H38L57 20V63H7V1Z" fill="white"/>
<path fill-rule="evenodd" clip-rule="evenodd" d="M7 63H57V20L38 1H7V63ZM38 0H6V64H58V20L38 0Z" fill="url(#paint0_linear_72_388)"/>
<path d="M31 28V8H12V28H31Z" fill="#BFBFBF"/>
<path d="M33 12V8H38V12H33Z" fill="#BFBFBF"/>
<path d="M33 20V16H38V19H52V20H33Z" fill="#BFBFBF"/>
<path d="M52 24H33V28H52V24Z" fill="#BFBFBF"/>
<path d="M52 31H12V36H52V31Z" fill="#BFBFBF"/>
<path opacity="0.3" d="M37 20V1H38V19H57L58 20H37Z" fill="black"/>
<path d="M20.3572 48.7381H22.002C22.6046 48.7381 23.0555 48.6232 23.3547 48.3936C23.6539 48.1598 23.8035 47.8214 23.8035 47.3784C23.8035 46.9313 23.6771 46.6012 23.4242 46.3879C23.1756 46.1746 22.7837 46.068 22.2485 46.068H20.3572V48.7381Z" fill="#9E1919"/>
<path d="M34.7364 48.9657C34.7364 47.0339 33.8599 46.068 32.1068 46.068H30.4596V51.925H31.9045C33.7925 51.925 34.7364 50.9386 34.7364 48.9657Z" fill="#9E1919"/>
<path fill-rule="evenodd" clip-rule="evenodd" d="M13.8494 40C12.828 40 12 40.8059 12 41.8V56.2C12 57.1941 12.828 58 13.8494 58H50.1506C51.172 58 52 57.1941 52 56.2V41.8C52 40.8059 51.172 40 50.1506 40H13.8494ZM25.7821 47.3107C25.7821 48.2787 25.4702 49.019 24.8465 49.5317C24.227 50.0444 23.3442 50.3008 22.1979 50.3008H20.3572V53.5H18.3976V44.5053H22.3496C23.4706 44.5053 24.3219 44.7411 24.9034 45.2128C25.4892 45.6804 25.7821 46.3797 25.7821 47.3107ZM36.7719 48.9165C36.7719 50.3972 36.3378 51.5312 35.4697 52.3187C34.6058 53.1062 33.3563 53.5 31.7212 53.5H28.5V44.5053H32.0057C33.5143 44.5053 34.6859 44.8929 35.5203 45.6681C36.3547 46.4433 36.7719 47.5261 36.7719 48.9165ZM39.527 53.5H41.455V49.9439H45.5903V48.3874H41.455V46.068H45.8242V44.5053H39.527V53.5Z" fill="#9E1919"/>
<defs>
<linearGradient id="paint0_linear_72_388" x1="32" y1="62.8333" x2="32" y2="8.08663e-07" gradientUnits="userSpaceOnUse">
<stop stop-color="#A8A8A8"/>
<stop offset="1" stop-color="#DADADA"/>
</linearGradient>
</defs>
</svg>
