<svg width="12" height="11" viewBox="0 0 12 11" fill="none" xmlns="http://www.w3.org/2000/svg">
<path fill-rule="evenodd" clip-rule="evenodd" d="M0.810547 0.707106L1.4718 1.36836L2.7943 2.69087L5.29585 5.19244L3.00452 7.48377L1.57703 8.91125L0.863283 9.625L1.57039 10.3321L2.28413 9.61836L3.71162 8.19087L6.00295 5.89954L8.2943 8.19089L9.7218 9.61839L10.4355 10.3321L11.1427 9.62503L10.4289 8.91128L9.0014 7.48378L6.71006 5.19244L9.21162 2.69087L10.5341 1.36836L11.1954 0.707108L10.4883 0L9.82703 0.661255L8.50452 1.98377L6.00295 4.48533L3.50141 1.98377L2.17891 0.661257L1.51766 0L0.810547 0.707106Z" fill="black"/>
</svg>
