<svg width="144" height="144" viewBox="0 0 144 144" fill="none" xmlns="http://www.w3.org/2000/svg">
<g clip-path="url(#clip0_1648_12465)">
<rect width="144" height="144" rx="8" fill="#F5F5F5"/>
<path opacity="0.12" d="M24.6858 31.8856L41 119L96.5 119L117 109L123.419 112.105L43.3679 192.46L-46.2607 102.831L24.6858 31.8856Z" fill="#808080"/>
<path d="M25 34C25 32.3431 26.3431 31 28 31H37V113H28C26.3431 113 25 111.657 25 110V34Z" fill="white"/>
<path d="M47 31H28C26.3431 31 25 32.3431 25 34V110C25 111.657 26.3431 113 28 113H47" stroke="#666666" stroke-width="4" stroke-linecap="round"/>
<path d="M37 30C37 28.3431 38.3431 27 40 27H83.5882L109 52.0909V116C109 117.657 107.657 119 106 119H40C38.3431 119 37 117.657 37 116V30Z" fill="white"/>
<path d="M78.1765 117H40C38.3431 117 37 115.657 37 114V30C37 28.3431 38.3431 27 40 27H82.2941L107 51.5455V76.0909" stroke="#666666" stroke-width="4" stroke-linecap="round"/>
<path d="M82.2856 26.7429L106.971 51.4286H85.2856C83.6288 51.4286 82.2856 50.0855 82.2856 48.4286V26.7429Z" fill="#666666"/>
<path fill-rule="evenodd" clip-rule="evenodd" d="M102.602 120.161L87.3729 113.121C86.0756 112.507 86.0756 111.557 87.3729 110.998L92.6747 108.54L102.545 113.121C103.843 113.736 105.929 113.736 107.17 113.121L117.041 108.54L122.343 110.998C123.64 111.613 123.64 112.562 122.343 113.121L107.114 120.161C105.929 120.72 103.843 120.72 102.602 120.161Z" fill="#FF6F3D"/>
<path fill-rule="evenodd" clip-rule="evenodd" d="M102.602 111.501L87.3729 104.461C86.0756 103.846 86.0756 102.896 87.3729 102.338L92.5619 99.9351L102.602 104.573C103.899 105.187 105.986 105.187 107.227 104.573L117.266 99.9351L122.456 102.338C123.753 102.952 123.753 103.902 122.456 104.461L107.227 111.501C105.929 112.115 103.843 112.115 102.602 111.501Z" fill="#95C038"/>
<path fill-rule="evenodd" clip-rule="evenodd" d="M102.602 103.064L87.3729 96.024C86.0756 95.4094 86.0756 94.4596 87.3729 93.9008L102.602 86.8609C103.899 86.2463 105.986 86.2463 107.227 86.8609L122.456 93.9008C123.753 94.5154 123.753 95.4653 122.456 96.024L107.227 103.064C105.929 103.623 103.843 103.623 102.602 103.064Z" fill="#5DC0E8"/>
<path d="M78 66C78 64.8954 78.9514 64 80.125 64H92.875C94.0486 64 95 64.8954 95 66C95 67.1046 94.0486 68 92.875 68H80.125C78.9514 68 78 67.1046 78 66Z" fill="#666666"/>
<path d="M49 78C49 76.8954 49.9361 76 51.0909 76H92.9091C94.0639 76 95 76.8954 95 78C95 79.1046 94.0639 80 92.9091 80H51.0909C49.9361 80 49 79.1046 49 78Z" fill="#666666"/>
<path d="M49 90C49 88.8954 49.9253 88 51.0667 88H77.9333C79.0747 88 80 88.8954 80 90C80 91.1046 79.0747 92 77.9333 92H51.0667C49.9253 92 49 91.1046 49 90Z" fill="#666666"/>
<path fill-rule="evenodd" clip-rule="evenodd" d="M66 51H53V64H66V51ZM53.2 47C50.8804 47 49 48.8804 49 51.2V63.8C49 66.1196 50.8804 68 53.2 68H65.8C68.1196 68 70 66.1196 70 63.8V51.2C70 48.8804 68.1196 47 65.8 47H53.2Z" fill="#666666"/>
</g>
<defs>
<clipPath id="clip0_1648_12465">
<rect width="144" height="144" rx="8" fill="white"/>
</clipPath>
</defs>
</svg>
