<svg width="144" height="144" viewBox="0 0 144 144" fill="none" xmlns="http://www.w3.org/2000/svg">
<rect width="144" height="144" fill="white"/>
<rect x="16" y="35" width="112" height="74" rx="5" fill="#D9F4FF"/>
<path d="M35 30C35 27.2386 37.2386 25 40 25H86.8L109 47V113C109 115.761 106.761 118 104 118H40C37.2386 118 35 115.761 35 113V30Z" fill="#BAEBFF"/>
<path d="M86.8 25L109 47V113C109 115.761 106.761 118 104 118H40C37.2386 118 35 115.761 35 113V76L86 25H86.8Z" fill="url(#paint0_linear_1667_13336)"/>
<path d="M40 118H104C106.761 118 109 115.761 109 113V47L38.2974 117.703C38.8288 117.895 39.4021 118 40 118Z" fill="url(#paint1_linear_1667_13336)"/>
<path d="M87 25L109 47H92C89.2386 47 87 44.7614 87 42V25Z" fill="white"/>
<circle cx="72" cy="72" r="26" fill="white"/>
<path fill-rule="evenodd" clip-rule="evenodd" d="M69.5016 88.3019L54.9309 81.5662C53.6897 80.9781 53.6897 80.0694 54.9309 79.5348L60.0036 77.1826L69.4476 81.5662C70.6888 82.1542 72.6855 82.1542 73.8727 81.5662L83.3167 77.1826L88.3894 79.5348C89.6306 80.1228 89.6306 81.0316 88.3894 81.5662L73.8188 88.3019C72.6855 88.8365 70.6888 88.8365 69.5016 88.3019Z" fill="#FF6F3D"/>
<path fill-rule="evenodd" clip-rule="evenodd" d="M69.5015 80.016L54.9309 73.2803C53.6897 72.6923 53.6897 71.7835 54.9309 71.2489L59.8957 68.9502L69.5015 73.3872C70.7428 73.9753 72.7395 73.9753 73.9267 73.3872L83.5325 68.9502L88.4974 71.2489C89.7386 71.8369 89.7386 72.7457 88.4974 73.2803L73.9267 80.016C72.6855 80.6041 70.6888 80.6041 69.5015 80.016Z" fill="#95C038"/>
<path fill-rule="evenodd" clip-rule="evenodd" d="M69.5015 71.9439L54.9309 65.2082C53.6897 64.6201 53.6897 63.7113 54.9309 63.1768L69.5015 56.441C70.7428 55.853 72.7395 55.853 73.9267 56.441L88.4974 63.1768C89.7386 63.7648 89.7386 64.6736 88.4974 65.2082L73.9267 71.9439C72.6855 72.4785 70.6888 72.4785 69.5015 71.9439Z" fill="#5DC0E8"/>
<defs>
<linearGradient id="paint0_linear_1667_13336" x1="35" y1="45.5" x2="103.5" y2="118" gradientUnits="userSpaceOnUse">
<stop stop-color="#9DE0FF"/>
<stop offset="1" stop-color="#C4EEFF"/>
</linearGradient>
<linearGradient id="paint1_linear_1667_13336" x1="38.2974" y1="62.6505" x2="88.674" y2="129.378" gradientUnits="userSpaceOnUse">
<stop stop-color="#80D7FF"/>
<stop offset="1" stop-color="#C4EEFF"/>
</linearGradient>
</defs>
</svg>
