<svg width="142" height="142" viewBox="0 0 142 142" fill="none" xmlns="http://www.w3.org/2000/svg">
<rect width="142" height="142" fill="#515251"/>
<path d="M0 71.493L31.5556 38.4583H111.092V103.542L82.3403 142H0V71.493Z" fill="#424342"/>
<g filter="url(#filter0_d_1606_12563)">
<path fill-rule="evenodd" clip-rule="evenodd" d="M103.87 38.4583H38.7872H31.5557H31.5557V45.6897H31.5557L31.5557 60.1527H31.5557V67.3842H31.5557H38.7872L103.87 67.3842H111.102L111.102 67.3842V60.1527H111.102V45.6897H111.102V38.4583H111.102H103.87ZM103.87 45.6897H38.7872V60.1527H103.87V45.6897Z" fill="white"/>
</g>
<g filter="url(#filter1_d_1606_12563)">
<path fill-rule="evenodd" clip-rule="evenodd" d="M111.102 74.6155H31.5557V81.847H31.5557L31.5557 96.31H31.5557V103.541H31.5557H38.7872H103.87H111.102H111.102V96.31H111.102V81.847H111.102V74.6155ZM38.7872 96.31H103.87V81.847H38.7872V96.31Z" fill="white"/>
</g>
<defs>
<filter id="filter0_d_1606_12563" x="30.5557" y="38.4583" width="80.5461" height="31.926" filterUnits="userSpaceOnUse" color-interpolation-filters="sRGB">
<feFlood flood-opacity="0" result="BackgroundImageFix"/>
<feColorMatrix in="SourceAlpha" type="matrix" values="0 0 0 0 0 0 0 0 0 0 0 0 0 0 0 0 0 0 127 0" result="hardAlpha"/>
<feOffset dx="-1" dy="3"/>
<feComposite in2="hardAlpha" operator="out"/>
<feColorMatrix type="matrix" values="0 0 0 0 0 0 0 0 0 0 0 0 0 0 0 0 0 0 0.25 0"/>
<feBlend mode="normal" in2="BackgroundImageFix" result="effect1_dropShadow_1606_12563"/>
<feBlend mode="normal" in="SourceGraphic" in2="effect1_dropShadow_1606_12563" result="shape"/>
</filter>
<filter id="filter1_d_1606_12563" x="30.5557" y="74.6155" width="80.5461" height="31.926" filterUnits="userSpaceOnUse" color-interpolation-filters="sRGB">
<feFlood flood-opacity="0" result="BackgroundImageFix"/>
<feColorMatrix in="SourceAlpha" type="matrix" values="0 0 0 0 0 0 0 0 0 0 0 0 0 0 0 0 0 0 127 0" result="hardAlpha"/>
<feOffset dx="-1" dy="3"/>
<feComposite in2="hardAlpha" operator="out"/>
<feColorMatrix type="matrix" values="0 0 0 0 0 0 0 0 0 0 0 0 0 0 0 0 0 0 0.25 0"/>
<feBlend mode="normal" in2="BackgroundImageFix" result="effect1_dropShadow_1606_12563"/>
<feBlend mode="normal" in="SourceGraphic" in2="effect1_dropShadow_1606_12563" result="shape"/>
</filter>
</defs>
</svg>
